<?xml version="1.0" encoding="UTF-8" standalone="no"?>
<!DOCTYPE svg PUBLIC "-//W3C//DTD SVG 1.1//EN" "http://www.w3.org/Graphics/SVG/1.1/DTD/svg11.dtd">
<svg width="100%" height="100%" viewBox="0 0 369 636" version="1.1" xmlns="http://www.w3.org/2000/svg" xmlns:xlink="http://www.w3.org/1999/xlink" xml:space="preserve" xmlns:serif="http://www.serif.com/" style="fill-rule:evenodd;clip-rule:evenodd;stroke-linejoin:round;stroke-miterlimit:2;">
    <g transform="matrix(1,0,0,1,0,-2.49583)">
        <g transform="matrix(4.16667,0,0,4.16667,0,0)">
            <rect x="44.049" y="14.186" width="0.287" height="75.851" style="fill:url(#_Linear1);"/>
            <path d="M5.279,37.838L5.279,153L5.452,152.95C77.735,119.983 83.183,92.317 83.095,46.233L83.095,37.838L5.279,37.838Z" style="fill:url(#_Linear2);"/>
            <path d="M44.193,37.838L5.279,37.838L5.279,145.851L5.366,145.827C42.099,129.062 44.314,115.037 44.188,91.291L44.193,91.291L44.193,37.838Z" style="fill:url(#_Linear3);"/>
            <path d="M88.029,0.717L88.033,0.705L88.017,0.711C88.017,0.711 87.884,0.76 87.688,0.832L82.82,2.477L82.809,2.479C66.35,7.548 48.755,12.923 44.191,14.186L44.191,90.037L44.225,90.025C85.347,71.274 83.263,55.947 83.002,26.62L83.005,26.62C83.002,26.549 83.002,26.478 83.002,26.406C82.993,25.712 82.99,25.017 82.988,24.325C82.986,24.076 82.986,23.835 82.986,23.592C82.986,22.837 82.993,22.082 83.006,21.331C83.011,21.094 83.016,20.861 83.023,20.625C83.043,19.906 83.067,19.185 83.106,18.471C83.115,18.253 83.132,18.028 83.147,17.809C83.185,17.179 83.237,16.549 83.296,15.924C83.319,15.658 83.34,15.397 83.37,15.136C83.446,14.432 83.539,13.734 83.644,13.036C83.691,12.754 83.737,12.469 83.788,12.184C83.905,11.517 84.033,10.852 84.184,10.191C84.247,9.921 84.32,9.65 84.388,9.377C84.526,8.834 84.68,8.295 84.841,7.758C84.924,7.487 85.004,7.217 85.094,6.949C85.317,6.283 85.568,5.629 85.841,4.976C85.942,4.727 86.055,4.478 86.164,4.23C86.781,2.877 87.502,1.672 88.375,0.599L88.029,0.717Z" style="fill:url(#_Linear4);"/>
            <path d="M44.191,14.186C39.622,12.923 22.028,7.548 5.567,2.479L5.557,2.477L0.687,0.832C0.493,0.76 0.361,0.711 0.361,0.711L0.342,0.705L0.346,0.717L0,0.599C0.873,1.672 1.595,2.877 2.213,4.23C2.323,4.478 2.433,4.727 2.538,4.976C2.807,5.629 3.06,6.283 3.281,6.949C3.374,7.217 3.45,7.487 3.535,7.758C3.698,8.295 3.85,8.834 3.988,9.377C4.055,9.65 4.127,9.921 4.192,10.191C4.341,10.852 4.473,11.517 4.586,12.184C4.639,12.469 4.686,12.754 4.73,13.036C4.836,13.734 4.929,14.432 5.005,15.136C5.034,15.397 5.056,15.658 5.079,15.924C5.14,16.549 5.191,17.179 5.232,17.809C5.243,18.028 5.259,18.253 5.27,18.471C5.308,19.185 5.334,19.906 5.353,20.625C5.359,20.861 5.365,21.094 5.371,21.331C5.384,22.082 5.392,22.837 5.392,23.592C5.392,23.835 5.392,24.076 5.389,24.325C5.386,25.017 5.384,25.712 5.375,26.406C5.375,26.478 5.375,26.549 5.373,26.62L5.375,26.62C5.115,55.947 3.03,71.274 44.153,90.025L44.191,90.037L44.191,14.186Z" style="fill:url(#_Linear5);"/>
            <path d="M46.565,54.998L44.189,54.267L41.812,54.998C41.79,57.554 41.642,59.072 44.189,60.65C46.735,59.072 46.588,57.554 46.565,54.998Z" style="fill:rgb(141,210,206);fill-rule:nonzero;"/>
        </g>
    </g>
    <defs>
        <linearGradient id="_Linear1" x1="0" y1="0" x2="1" y2="0" gradientUnits="userSpaceOnUse" gradientTransform="matrix(-22.2695,21.1406,-21.1406,-22.2695,48.8711,47.6713)"><stop offset="0" style="stop-color:rgb(24,62,97);stop-opacity:1"/><stop offset="0.9" style="stop-color:rgb(26,189,201);stop-opacity:1"/><stop offset="1" style="stop-color:rgb(45,191,202);stop-opacity:1"/></linearGradient>
        <linearGradient id="_Linear2" x1="0" y1="0" x2="1" y2="0" gradientUnits="userSpaceOnUse" gradientTransform="matrix(-57.6492,54.7269,-54.7269,-57.6492,42.2637,69.1439)"><stop offset="0" style="stop-color:rgb(26,38,80);stop-opacity:1"/><stop offset="0.4" style="stop-color:rgb(46,35,91);stop-opacity:1"/><stop offset="0.7" style="stop-color:rgb(94,32,120);stop-opacity:1"/><stop offset="0.8" style="stop-color:rgb(116,38,136);stop-opacity:1"/><stop offset="0.9" style="stop-color:rgb(135,40,144);stop-opacity:1"/><stop offset="1" style="stop-color:rgb(142,41,144);stop-opacity:1"/></linearGradient>
        <linearGradient id="_Linear3" x1="0" y1="0" x2="1" y2="0" gradientUnits="userSpaceOnUse" gradientTransform="matrix(27.892,-73.5817,73.5817,27.892,-2.54785,144.848)"><stop offset="0" style="stop-color:rgb(26,38,80);stop-opacity:1"/><stop offset="0.4" style="stop-color:rgb(51,34,94);stop-opacity:1"/><stop offset="0.9" style="stop-color:rgb(128,41,143);stop-opacity:1"/><stop offset="1" style="stop-color:rgb(139,40,144);stop-opacity:1"/></linearGradient>
        <linearGradient id="_Linear4" x1="0" y1="0" x2="1" y2="0" gradientUnits="userSpaceOnUse" gradientTransform="matrix(-29.3994,-95.994,95.994,-29.3994,80.9951,93.3529)"><stop offset="0" style="stop-color:rgb(45,191,202);stop-opacity:1"/><stop offset="0.1" style="stop-color:rgb(14,175,191);stop-opacity:1"/><stop offset="0.4" style="stop-color:rgb(19,104,131);stop-opacity:1"/><stop offset="0.8" style="stop-color:rgb(23,50,88);stop-opacity:1"/><stop offset="1" style="stop-color:rgb(26,38,80);stop-opacity:1"/></linearGradient>
        <linearGradient id="_Linear5" x1="0" y1="0" x2="1" y2="0" gradientUnits="userSpaceOnUse" gradientTransform="matrix(-4.33807e-06,-99.2434,99.2434,-4.33807e-06,22.0957,79.7855)"><stop offset="0" style="stop-color:rgb(45,191,202);stop-opacity:1"/><stop offset="0.1" style="stop-color:rgb(16,182,196);stop-opacity:1"/><stop offset="0.5" style="stop-color:rgb(24,98,127);stop-opacity:1"/><stop offset="0.9" style="stop-color:rgb(25,46,85);stop-opacity:1"/><stop offset="1" style="stop-color:rgb(26,38,80);stop-opacity:1"/></linearGradient>
    </defs>
</svg>
